/* XPM */
static char * bitcoin32_xpm[] = {
"32 32 263 2",
"  	c None",
". 	c #F4F2F2",
"+ 	c #F1F0EF",
"@ 	c #EDD1C5",
"# 	c #E9C4B4",
"$ 	c #E4A78B",
"% 	c #DF8C5C",
"& 	c #D9793A",
"* 	c #EABDA6",
"= 	c #DE8963",
"- 	c #DA6F3E",
"; 	c #D65E18",
"> 	c #D65A18",
", 	c #EFD6CA",
"' 	c #E4A389",
") 	c #D7601E",
"! 	c #EDCBBB",
"~ 	c #DD7F54",
"{ 	c #D65B18",
"] 	c #ECCBBB",
"^ 	c #DC773D",
"/ 	c #D7611E",
"( 	c #E08F66",
"_ 	c #DB7441",
": 	c #D86427",
"< 	c #E2976F",
"[ 	c #DC7B49",
"} 	c #EDB89B",
"| 	c #FDF6F0",
"1 	c #F7DFD0",
"2 	c #DC7130",
"3 	c #D65C18",
"4 	c #EBAE8D",
"5 	c #FDF7F1",
"6 	c #F9E3D8",
"7 	c #DC7D4D",
"8 	c #DD7E54",
"9 	c #DB7442",
"0 	c #EBB79B",
"a 	c #FEF8F5",
"b 	c #FFFFFF",
"c 	c #F7DFCF",
"d 	c #DA7040",
"e 	c #D75E1D",
"f 	c #E9A882",
"g 	c #FEFEF8",
"h 	c #FAE5D8",
"i 	c #EAAC8F",
"j 	c #D8672E",
"k 	c #E3A388",
"l 	c #EABDA7",
"m 	c #DC7846",
"n 	c #F8E0D5",
"o 	c #FEFDFA",
"p 	c #F9EFEB",
"q 	c #BD6E53",
"r 	c #D25D1E",
"s 	c #F2CFB4",
"t 	c #FEFBFA",
"u 	c #EFBAA1",
"v 	c #D65918",
"w 	c #D7601D",
"x 	c #DD8963",
"y 	c #F0C0A7",
"z 	c #FFFFFE",
"A 	c #FCF6F3",
"B 	c #CC957F",
"C 	c #A03512",
"D 	c #A93B13",
"E 	c #D26623",
"F 	c #F6DCC9",
"G 	c #FFFEFD",
"H 	c #FDF8F1",
"I 	c #D8855C",
"J 	c #D55918",
"K 	c #EDD2C6",
"L 	c #DA703E",
"M 	c #E9A986",
"N 	c #FEF7F4",
"O 	c #CCA398",
"P 	c #A13512",
"Q 	c #DE9A76",
"R 	c #FEF9F5",
"S 	c #F0DDD5",
"T 	c #D2632A",
"U 	c #D65818",
"V 	c #D96F3E",
"W 	c #E49773",
"X 	c #FDF6F2",
"Y 	c #F5E1D9",
"Z 	c #B36A58",
"` 	c #B26755",
" .	c #F7E2D9",
"..	c #F1E7E3",
"+.	c #AA4D26",
"@.	c #CE5517",
"#.	c #D65D18",
"$.	c #E8C4B4",
"%.	c #E5A68A",
"&.	c #EAAD8D",
"*.	c #FFFDFB",
"=.	c #FEFCF5",
"-.	c #F6E8E2",
";.	c #B46D5C",
">.	c #B16652",
",.	c #F4E4DE",
"'.	c #F6E8DE",
").	c #F0D5C7",
"!.	c #EFE5E1",
"~.	c #A4441A",
"{.	c #A53812",
"].	c #E4A689",
"^.	c #DF8958",
"/.	c #DA6A32",
"(.	c #F3D6C3",
"_.	c #FFFEFC",
":.	c #FEF9F6",
"<.	c #D9AFA0",
"[.	c #B86A46",
"}.	c #F5E8DD",
"|.	c #FFFEFE",
"1.	c #FBEBE2",
"2.	c #F6E4D9",
"3.	c #F4E7DC",
"4.	c #B4653E",
"5.	c #E7C9BA",
"6.	c #FEFCFC",
"7.	c #EDE0D5",
"8.	c #A23E14",
"9.	c #D97532",
"0.	c #DA6C36",
"a.	c #EABDA3",
"b.	c #C99686",
"c.	c #A13612",
"d.	c #BA765B",
"e.	c #F5EAE0",
"f.	c #F5EAE1",
"g.	c #B87259",
"h.	c #A74C36",
"i.	c #EBCDBF",
"j.	c #E7C6B4",
"k.	c #A13B12",
"l.	c #9F3412",
"m.	c #BC6028",
"n.	c #EEEDED",
"o.	c #DA7532",
"p.	c #CC5417",
"q.	c #A43812",
"r.	c #A13712",
"s.	c #C88766",
"t.	c #C78867",
"u.	c #B15F33",
"v.	c #914113",
"w.	c #CCCCCC",
"x.	c #DF8858",
"y.	c #CD5417",
"z.	c #AB5231",
"A.	c #EAD3C6",
"B.	c #E9D3C4",
"C.	c #AA5032",
"D.	c #944F2E",
"E.	c #B7B7B6",
"F.	c #CE5417",
"G.	c #AE4F28",
"H.	c #E0BDAB",
"I.	c #FEF9F7",
"J.	c #FEFBF9",
"K.	c #E0C0AE",
"L.	c #A84B2A",
"M.	c #9E3312",
"N.	c #9B6B5A",
"O.	c #D9662A",
"P.	c #EDCAB4",
"Q.	c #FEFCFA",
"R.	c #FDF7F5",
"S.	c #CD9E91",
"T.	c #DAB19E",
"U.	c #FEFAF7",
"V.	c #FEFDFB",
"W.	c #E5C9B8",
"X.	c #A84A29",
"Y.	c #9D3512",
"Z.	c #A4897F",
"`.	c #EDD1C6",
" +	c #D86220",
".+	c #ECB89B",
"++	c #FEFBF8",
"@+	c #D7A898",
"#+	c #A74621",
"$+	c #E1BEAD",
"%+	c #FEFAF8",
"&+	c #DCB5A2",
"*+	c #A74722",
"=+	c #9D4225",
"-+	c #A8968E",
";+	c #EEBEA2",
">+	c #CB9A8C",
",+	c #A74723",
"'+	c #E1BFAF",
")+	c #A6451F",
"!+	c #9F3512",
"~+	c #995643",
"{+	c #E7BBA5",
"]+	c #E8AA8A",
"^+	c #FDF8F5",
"/+	c #D7A99B",
"(+	c #A64722",
"_+	c #E1C0AF",
":+	c #D6A994",
"<+	c #A13912",
"[+	c #9B3611",
"}+	c #9F8070",
"|+	c #E3A285",
"1+	c #D66318",
"2+	c #F9E2D2",
"3+	c #CD9C8E",
"4+	c #DAB29F",
"5+	c #F6DDCD",
"6+	c #A44312",
"7+	c #9E3412",
"8+	c #9D6B59",
"9+	c #EED4CA",
"0+	c #E49870",
"a+	c #F9E9E1",
"b+	c #E2C2B4",
"c+	c #F6E9E2",
"d+	c #C2856A",
"e+	c #9D4E34",
"f+	c #AA9890",
"g+	c #ECCBBC",
"h+	c #DC743A",
"i+	c #DA754A",
"j+	c #A54621",
"k+	c #B3684F",
"l+	c #A23B18",
"m+	c #99421A",
"n+	c #A68E85",
"o+	c #CD5517",
"p+	c #A53912",
"q+	c #9E3512",
"r+	c #EDD6CB",
"s+	c #D75F1D",
"t+	c #9E6B59",
"u+	c #AA9891",
"v+	c #EEE6E2",
"w+	c #E9BCA6",
"x+	c #DD8A65",
"y+	c #9C3512",
"z+	c #9D4325",
"A+	c #9A5745",
"B+	c #A08071",
"C+	c #AEA7A5",
"D+	c #ECD3C8",
"E+	c #E5C1B3",
"F+	c #B68672",
"G+	c #934F2D",
"H+	c #8E3D12",
"I+	c #9B6B59",
"J+	c #A48B81",
"K+	c #A89690",
"L+	c #B4B4B3",
"M+	c #B1B1B0",
"N+	c #B1B1B1",
"                                                                ",
"                            . + + .                             ",
"                      @ # $ % & & % $ # @                       ",
"                  * = - ; > > > > > > ; - = *                   ",
"              , ' ) > > > > > > > > > > > > ) ' ,               ",
"            ! ~ { > > > > > > > > > > > > > > { ~ !             ",
"          ] ^ > > > > / ( _ > > > > : < [ { > > > ^ !           ",
"        , ~ > > > > / } | 1 2 > > 3 4 5 6 7 > > > > 8 ,         ",
"        ' { > > { 9 0 a b b c d e f g b b h i j > > { k         ",
"      l ) > > > m n o b b b p q r s b b b b t u 3 v > w l       ",
"      x > > > ; y z b b b A B C D E F G b b b H I J > > x       ",
"    K L > > ; M N b b b G O P C P D Q R b b b b S T U v V K     ",
"    # ; > > W X b b b b b Y Z C C `  .b b b b b ..+.@.v #.$.    ",
"    %.> > > &.o b b *.=.b b -.;.>.,.b b '.).b b !.~.{.@.> ].    ",
"  . ^.> > > /.(._.:.<.[.}.|.b 1.2.b |.3.4.C 5.6.7.8.C C @.^..   ",
"  + 9.> > > > 0.a.b.C c.d.e.b b b b f.g.C C h.i.j.k.C l.{.m.n.  ",
"  + o.> > > > > p.q.C C r.s.z b b b t.C C C C C u.l.C l.l.v.w.  ",
"  . x.> > > > > > y.C C z.A.b b b b B.C.C C C l.l.l.C l.l.D.E.  ",
"    ].> > > > > > v F.G.H.*.b I.J.b *.K.L.C C C l.l.C l.M.N.    ",
"    # ; > > > > > > O.P.Q.b R.S.T.U.b V.W.X.C C l.l.C l.Y.Z.    ",
"    `.- > > > > >  +.+++b R.@+c.#+$+%+b J.&+*+C l.l.C l.=+-+    ",
"      x > > > > / ;+U.b R.>+C C C ,+T.%+b J.'+)+l.l.C !+~+      ",
"      {+w > > 3 ]+a b ^+/+C C C C C (+_+++b U.:+<+l.C [+}+      ",
"        |+{ > 1+2+b a 3+C C C C C C C (+4+J.b 5+6+l.7+8+        ",
"        9+8 > > 0+a+<.C C C C C C C C C (+b+c+d+C l.e+f+        ",
"          g+h+> e i+C C C C C C C C C l.l.j+k+l+l.m+n+          ",
"            g+8 { U o+p+C C C C C C C !+!+!+l.q+e+n+            ",
"              r+|+s+> @.C C C C C C C l.l.!+[+t+u+              ",
"                v+w+x+- o+q.C C C C M.y+z+A+B+C+                ",
"                      D+E+F+G+H+H+G+I+J+K+                      ",
"                            L+M+M+N+                            ",
"                                                                "};
