/* XPM */
static char * bitcoin32_xpm[] = {
"32 32 362 2",
"  	c None",
". 	c #DFC7A8",
"+ 	c #E1BF96",
"@ 	c #E2B889",
"# 	c #E4B57E",
"$ 	c #DFC6A7",
"% 	c #E4B37A",
"& 	c #E8A250",
"* 	c #EC942E",
"= 	c #EE8C1B",
"- 	c #F08911",
"; 	c #F0870D",
"> 	c #DFC8AC",
", 	c #E5AF71",
"' 	c #EB9736",
") 	c #F0880F",
"! 	c #F28302",
"~ 	c #F38300",
"{ 	c #E2BC8F",
"] 	c #EA9E47",
"^ 	c #F38200",
"/ 	c #F48300",
"( 	c #F48400",
"_ 	c #E4B57F",
": 	c #EB9530",
"< 	c #EC9128",
"[ 	c #F18D16",
"} 	c #F19B36",
"| 	c #F1860B",
"1 	c #F28300",
"2 	c #F39426",
"3 	c #F39B34",
"4 	c #F28505",
"5 	c #EB9430",
"6 	c #F28E19",
"7 	c #F6C387",
"8 	c #F8E4CB",
"9 	c #F3B368",
"0 	c #F1870C",
"a 	c #F3982E",
"b 	c #F9D2A5",
"c 	c #FAE0C1",
"d 	c #F5A94F",
"e 	c #F28606",
"f 	c #F28200",
"g 	c #E0CAAD",
"h 	c #E99F48",
"i 	c #F18302",
"j 	c #F38402",
"k 	c #F29323",
"l 	c #FCF5EC",
"m 	c #FEFEFE",
"n 	c #FAECDC",
"o 	c #F2B36A",
"p 	c #F0860A",
"q 	c #F4972B",
"r 	c #F9D1A4",
"s 	c #FEFAF7",
"t 	c #FEFEFD",
"u 	c #FBE5CB",
"v 	c #F5B76D",
"w 	c #F29222",
"x 	c #F08302",
"y 	c #E99E48",
"z 	c #E6B071",
"A 	c #F38403",
"B 	c #F5A445",
"C 	c #F9D7AF",
"D 	c #FDF7F0",
"E 	c #FFFFFF",
"F 	c #F2D7B9",
"G 	c #E48C26",
"H 	c #ED8307",
"I 	c #F6B467",
"J 	c #FDF6ED",
"K 	c #FDF6EE",
"L 	c #F7D0A2",
"M 	c #F1962D",
"N 	c #EF870F",
"O 	c #E1C5A6",
"P 	c #EB9836",
"Q 	c #F39930",
"R 	c #F9DDBC",
"S 	c #FEFDFC",
"T 	c #F7EBDD",
"U 	c #DEA665",
"V 	c #CE7208",
"W 	c #DB7600",
"X 	c #EE942A",
"Y 	c #F9D2A3",
"Z 	c #FEFBF7",
"` 	c #FDFAF6",
" .	c #F1C38F",
"..	c #EA8510",
"+.	c #F18200",
"@.	c #EA9836",
"#.	c #E5B47B",
"$.	c #F28A12",
"%.	c #F6C083",
"&.	c #FDF8F3",
"*.	c #F9F3EB",
"=.	c #E0AF74",
"-.	c #CC740D",
";.	c #CA6D00",
">.	c #CC6D00",
",.	c #DA7500",
"'.	c #EE9732",
").	c #FADFC1",
"!.	c #FEFDFD",
"~.	c #F6EADB",
"{.	c #E4A358",
"].	c #E77E04",
"^.	c #EE870F",
"/.	c #E9A250",
"(.	c #F28A11",
"_.	c #F5BB77",
":.	c #FBF1E5",
"<.	c #F6EADC",
"[.	c #D99A50",
"}.	c #CA6E02",
"|.	c #CB6E02",
"1.	c #E29943",
"2.	c #FDFCFB",
"3.	c #E7C094",
"4.	c #D4780C",
"5.	c #E67B00",
"6.	c #F18100",
"7.	c #F18202",
"8.	c #E1C6A8",
"9.	c #F28405",
"0.	c #F3AE5E",
"a.	c #FBF0E3",
"b.	c #FDFCFA",
"c.	c #EFD7BB",
"d.	c #D79343",
"e.	c #CA6E03",
"f.	c #CA6E01",
"g.	c #D5903E",
"h.	c #EFD6B9",
"i.	c #FDFDFC",
"j.	c #F8F0E5",
"k.	c #FCFAF7",
"l.	c #E6BD8E",
"m.	c #CA7108",
"n.	c #D27100",
"o.	c #EB942E",
"p.	c #E2BE93",
"q.	c #EE8C1A",
"r.	c #F1A54C",
"s.	c #F8E5D0",
"t.	c #F9F2EB",
"u.	c #EBCDA9",
"v.	c #F2DFC8",
"w.	c #F0DABF",
"x.	c #D79649",
"y.	c #D58F3D",
"z.	c #EED4B5",
"A.	c #EFD8BD",
"B.	c #DCA360",
"C.	c #E8C49A",
"D.	c #FCF8F3",
"E.	c #FDFBF8",
"F.	c #E3B580",
"G.	c #CA7005",
"H.	c #C96C00",
"I.	c #ED8B1A",
"J.	c #E4B783",
"K.	c #F08810",
"L.	c #F18507",
"M.	c #EFAC5E",
"N.	c #F7E8D6",
"O.	c #F9F2EA",
"P.	c #E4B784",
"Q.	c #CF7C1C",
"R.	c #D89648",
"S.	c #F1DCC3",
"T.	c #F3E3D0",
"U.	c #F2DFC9",
"V.	c #F1DBC2",
"W.	c #D79446",
"X.	c #D18125",
"Y.	c #DFAD72",
"Z.	c #C96E03",
"`.	c #C96D00",
" +	c #E38210",
".+	c #E4B782",
"++	c #E4B479",
"@+	c #F1870B",
"#+	c #EF850A",
"$+	c #EBAA5D",
"%+	c #E1AE71",
"&+	c #CE7B19",
"*+	c #CA6F04",
"=+	c #D8974B",
"-+	c #F1DDC5",
";+	c #F2DEC6",
">+	c #D8974A",
",+	c #CA6F03",
"'+	c #D18327",
")+	c #E6BF91",
"!+	c #DA9F59",
"~+	c #C96D02",
"{+	c #D0740A",
"]+	c #D7A972",
"^+	c #E4B379",
"/+	c #EB8106",
"(+	c #D6780A",
"_+	c #DEA767",
":+	c #F9F1E8",
"<+	c #F9F1E9",
"[+	c #CB6E00",
"}+	c #CE7C1D",
"|+	c #CD7917",
"1+	c #C56E09",
"2+	c #BF9769",
"3+	c #E77C00",
"4+	c #CF7D1D",
"5+	c #E7C093",
"6+	c #FCF9F6",
"7+	c #FCF9F5",
"8+	c #E7C194",
"9+	c #CF7E1E",
"0+	c #C46F0C",
"a+	c #B8956C",
"b+	c #E4BE93",
"c+	c #EE8B19",
"d+	c #E47A00",
"e+	c #D06F00",
"f+	c #CE7B18",
"g+	c #E5BA88",
"h+	c #FBF5EF",
"i+	c #FBF8F5",
"j+	c #FCF9F7",
"k+	c #FBF6EF",
"l+	c #E5BB8B",
"m+	c #CF7B1B",
"n+	c #C17114",
"o+	c #B89A7A",
"p+	c #E0C6A7",
"q+	c #F08100",
"r+	c #E28416",
"s+	c #E6B882",
"t+	c #F9F2E9",
"u+	c #E6BE8F",
"v+	c #E8C398",
"w+	c #FAF3EC",
"x+	c #E4B985",
"y+	c #CE7A18",
"z+	c #BF7725",
"A+	c #B8A28C",
"B+	c #F28301",
"C+	c #F4BC7B",
"D+	c #FAF2E8",
"E+	c #CE7915",
"F+	c #D07E1E",
"G+	c #E7BE8F",
"H+	c #FBF5F0",
"I+	c #E3B681",
"J+	c #CD7915",
"K+	c #C76C01",
"L+	c #BC8341",
"M+	c #F2890E",
"N+	c #F5B872",
"O+	c #CE7916",
"P+	c #D07E1F",
"Q+	c #E7BF91",
"R+	c #FBF6F1",
"S+	c #E2B37C",
"T+	c #CD7713",
"U+	c #C46E0B",
"V+	c #B99165",
"W+	c #DEC3A5",
"X+	c #EB9735",
"Y+	c #F4B56A",
"Z+	c #FBEEDF",
"`+	c #E4B681",
" @	c #CB6D00",
".@	c #D07F20",
"+@	c #E7C092",
"@@	c #F8EFE5",
"#@	c #E1B076",
"$@	c #CC7610",
"%@	c #C86C00",
"&@	c #BE7A2C",
"*@	c #B6A28A",
"=@	c #E5B071",
"-@	c #EF870E",
";@	c #F18405",
">@	c #F2AE5E",
",@	c #FAEBDA",
"'@	c #FBF7F2",
")@	c #F7EEE2",
"!@	c #DEA86A",
"~@	c #BA8F5D",
"{@	c #E0C8AD",
"]@	c #E99E47",
"^@	c #F3BC7B",
"/@	c #FCF6F0",
"(@	c #E4B884",
"_@	c #CE7A17",
":@	c #D07F21",
"<@	c #FAF5EE",
"[@	c #E1B27A",
"}@	c #CB730B",
"|@	c #BD813A",
"1@	c #B7A58F",
"2@	c #E2BB8F",
"3@	c #EB952E",
"4@	c #F09121",
"5@	c #F1C18A",
"6@	c #CF7F21",
"7@	c #E5BD8D",
"8@	c #E5BC8C",
"9@	c #CF7E1F",
"0@	c #C07826",
"a@	c #B89A76",
"b@	c #E3B47F",
"c@	c #EC9127",
"d@	c #EB8612",
"e@	c #D5790F",
"f@	c #CA6E00",
"g@	c #CC7713",
"h@	c #CC7814",
"i@	c #C0761F",
"j@	c #B9946A",
"k@	c #E3B57E",
"l@	c #EC952E",
"m@	c #D07000",
"n@	c #C07926",
"o@	c #BA9569",
"p@	c #E3BD91",
"q@	c #E99E46",
"r@	c #E17900",
"s@	c #CE6F00",
"t@	c #BE813A",
"u@	c #B99B77",
"v@	c #DFC7AD",
"w@	c #E6B072",
"x@	c #ED860E",
"y@	c #DF7802",
"z@	c #C07B2B",
"A@	c #BB8F5F",
"B@	c #B7A491",
"C@	c #DFC5A7",
"D@	c #E4B37C",
"E@	c #E6A150",
"F@	c #D7882C",
"G@	c #C57415",
"H@	c #C36E0C",
"I@	c #C46D08",
"J@	c #C27114",
"K@	c #C07725",
"L@	c #BC8342",
"M@	c #B99367",
"N@	c #B7A38B",
"O@	c #DBC3A7",
"P@	c #C3A786",
"Q@	c #B9966E",
"R@	c #B78F63",
"S@	c #B7966E",
"T@	c #B79D7D",
"U@	c #B8A48E",
"                        . + @ # # @ + .                         ",
"                  $ % & * = - ; ; - = * & % $                   ",
"              > , ' ) ! ~ ~ ~ ~ ~ ~ ~ ~ ! ) ' , >               ",
"            { ] ) ^ ~ / ( ( ( ( ( ( ( / / ~ ^ ) ] {             ",
"          _ : ! ~ / / ~ ~ ~ / / / / ~ ~ ~ ~ / ~ ! : _           ",
"        _ < ^ / / / ~ [ } | ^ / / ~ 1 2 3 4 ~ / / ^ < _         ",
"      { 5 ^ / / / ^ 6 7 8 9 0 ^ / ~ a b c d e ^ ~ / f : {       ",
"    g h i ~ ( ~ j k 7 l m n o p f q r s t u v w f ~ 1 x y g     ",
"    z ) ~ ( ~ A B C D m E m F G H I J E E m K L M f ~ f N ,     ",
"  O P ~ ( / f Q R S E E m T U V W X Y Z E E E `  ...+.~ f @.O   ",
"  #.) ~ / ~ $.%.&.E E m *.=.-.;.>.,.'.).!.E E m ~.{.].+.f ^.#.  ",
"  /.! ( ~ (._.:.m E E m <.[.}.;.;.|.1.8 m m E E 2.3.4.5.6.7.&   ",
"8.* ~ / 9.0.a.m E m b.t 2.c.d.e.f.g.h.2.i.j.k.E 2.l.m.n.5.6.o.8.",
"p.q.~ / ! r.s.m m t.u.v.S 2.w.x.y.z.2.i.A.B.C.D.E.F.G.H.n.5.I.p.",
"J.K.~ ( ~ L.M.N.O.P.Q.R.S.S S T.U.b.!.V.W.e.X.C.*.Y.Z.`.H.n. +.+",
"++@+/ ( / ^ #+$+%+&+;.*+=+-+!.m t t ;+>+,+;.;.'+)+!+~+;.;.H.{+]+",
"^+| / ( ( ( ~ /+(+;.;.;.*+_+:+m m <+_+*+;.[+;.;.}+|+H.;.;.;.1+2+",
"J.) ~ ( ( ( ( ~ 3+n.;.;.4+5+6+m m 7+8+9+;.;.[+;.H.H.`.;.;.H.0+a+",
"b+c+~ ( ( ( ( ( f d+e+f+g+h+m i+j+m k+l+m+;.;.;.;.`.;.;.;.H.n+o+",
"p+* ~ ( ( ( ( ( ~ q+r+s+*.m t+u+v+h+m w+x+y+;.;.;.;.;.;.;.H.z+A+",
"  /.B+( ( ( ( ( ~ (.C+D+m t+F.E+F+G+H+m O.I+J+;.;.;.;.;.;.K+L+  ",
"  ^+) ~ ( ( ( ~ M+N+a.m O.I+O+;.;.P+Q+R+m :+S+T+;.;.;.;.H.U+V+  ",
"  W+X+1 ( ( ~ @+Y+Z+m O.`+O+;. @ @;..@+@R+m @@#@$@`.;.;.%@&@*@  ",
"    =@-@~ ~ ;@>@,@m O..+O+;. @[+[+ @;..@5+'@m )@!@m.`.H.U+~@    ",
"    {@]@i ~ @+^@/@w+(@_@;. @[+[+[+[+[+;.:@8+R+<@[@}@`.K+|@1@    ",
"      2@3@+.f 4@5@`+&+;.;.[+[+[+[+[+[+;.H.6@7@8@9@H.%@0@a@      ",
"        b@c@f f d@e@;.;.f@f@f@f@f@f@;.`.`.H.g@h@`.%@i@j@        ",
"          k@l@7.6.d+m@`.;.;.;.;.;.;.`.`.`.`.`.H.K+n@o@          ",
"            p@q@-@q+r@s@H.;.;.;.;.;.;.`.`.H.%@U+t@u@            ",
"              v@w@X+x@y@>.H.;.;.;.;.H.H.K+U+z@A@B@              ",
"                  C@D@E@F@G@H@I@I@H@J@K@L@M@N@                  ",
"                        O@P@Q@R@R@S@T@U@                        "};
