/* XPM */
static char * bitcoin16_xpm[] = {
"16 16 100 2",
"  	c None",
". 	c #E3A68F",
"+ 	c #DE8E70",
"@ 	c #D96E37",
"# 	c #E8BAA7",
"$ 	c #D97044",
"% 	c #D65A18",
"& 	c #D76023",
"* 	c #DC784D",
"= 	c #EDC1AE",
"- 	c #D75F1E",
"; 	c #E9B49C",
"> 	c #E29779",
", 	c #E19275",
"' 	c #FAEFE9",
") 	c #FFFFFF",
"! 	c #E5B9A9",
"~ 	c #E19673",
"{ 	c #FFFFFE",
"] 	c #FEFAF8",
"^ 	c #EDBDAC",
"/ 	c #E3A78F",
"( 	c #DA7242",
"_ 	c #FBF1EC",
": 	c #F5ECE9",
"< 	c #AA533D",
"[ 	c #B24617",
"} 	c #F5E1D5",
"| 	c #FFFEFC",
"1 	c #DA9076",
"2 	c #D65918",
"3 	c #DE8D70",
"4 	c #F4D8CB",
"5 	c #FFFEFB",
"6 	c #FDFAF8",
"7 	c #C39084",
"8 	c #C18B7F",
"9 	c #F9F0EB",
"0 	c #CDA99F",
"a 	c #C75016",
"b 	c #D96C33",
"c 	c #DF8967",
"d 	c #F0DDD4",
"e 	c #B26752",
"f 	c #ECDAD1",
"g 	c #FEFBFA",
"h 	c #EBDAD1",
"i 	c #A44220",
"j 	c #E1C5BC",
"k 	c #C79A8A",
"l 	c #9F3412",
"m 	c #C56130",
"n 	c #C65016",
"o 	c #A03512",
"p 	c #BF846F",
"q 	c #BE836E",
"r 	c #A3401C",
"s 	c #993E1A",
"t 	c #D17D5C",
"u 	c #F9F2EE",
"v 	c #F5EAE7",
"w 	c #F8EEEA",
"x 	c #F9F3EE",
"y 	c #B6735E",
"z 	c #9E5C4C",
"A 	c #E3A690",
"B 	c #DC7B51",
"C 	c #FBF0E9",
"D 	c #F4E9E5",
"E 	c #AD5C49",
"F 	c #B46C57",
"G 	c #F8EFEB",
"H 	c #B46D57",
"I 	c #A07164",
"J 	c #D96F42",
"K 	c #D65D18",
"L 	c #F9E7DE",
"M 	c #F5EAE6",
"N 	c #AD5C4B",
"O 	c #B46D58",
"P 	c #F8EFEA",
"Q 	c #F5E7DF",
"R 	c #A13912",
"S 	c #9D442B",
"T 	c #E8BAA8",
"U 	c #D76022",
"V 	c #E4A086",
"W 	c #AD5F4D",
"X 	c #B36E5A",
"Y 	c #C79686",
"Z 	c #9E3714",
"` 	c #A48176",
" .	c #E8BBA9",
"..	c #9F3512",
"+.	c #A48177",
"@.	c #E3A994",
"#.	c #C57E69",
"$.	c #993D1A",
"%.	c #9E5D4D",
"&.	c #A17368",
"                                ",
"          . + @ @ + .           ",
"      # $ % % % % % % $ #       ",
"    # & % * = - % ; > % & #     ",
"    $ % , ' ) ! ~ { ] ^ % $     ",
"  / % ( _ ) : < [ } ) | 1 2 /   ",
"  3 % 4 ) 5 6 7 8 6 9 ) 0 a 3   ",
"  b % c d e f g 6 h i j k l m   ",
"  b % % n o p ) ) q o o r l s   ",
"  3 % % % t u v w x y o l l z   ",
"  A % % B C D E F w G H l l I   ",
"    J K L M N o o O P Q R S     ",
"    T U V W o o o o X Y Z `     ",
"       .J n o o o ..l S +.      ",
"          @.#.$.$.%.&.          ",
"                                "};
