/* XPM */
static char * bitcoin16_xpm[] = {
"16 16 161 2",
"  	c None",
". 	c #E7A85E",
"+ 	c #EA9D44",
"@ 	c #EB9837",
"# 	c #E7A65A",
"$ 	c #EC932D",
"% 	c #EC8610",
"& 	c #F18304",
"* 	c #F28301",
"= 	c #E9A04D",
"- 	c #E6871C",
"; 	c #F28200",
"> 	c #F28A10",
", 	c #F28F1C",
"' 	c #F38301",
") 	c #F38300",
"! 	c #F38C15",
"~ 	c #F38F1A",
"{ 	c #E7881C",
"] 	c #E7A04D",
"^ 	c #F38200",
"/ 	c #F3901D",
"( 	c #F6C080",
"_ 	c #F7D0A3",
": 	c #F19831",
"< 	c #F28E19",
"[ 	c #F7C68D",
"} 	c #F8CF9F",
"| 	c #F39F3C",
"1 	c #F28404",
"2 	c #E6881C",
"3 	c #E5A65A",
"4 	c #EC942D",
"5 	c #F28300",
"6 	c #F3911F",
"7 	c #F8CC98",
"8 	c #FCF6EE",
"9 	c #F7ECDF",
"0 	c #E39E4F",
"a 	c #E89331",
"b 	c #F9E0C2",
"c 	c #FDFBF9",
"d 	c #F9E1C4",
"e 	c #F0A146",
"f 	c #F08202",
"g 	c #EB932D",
"h 	c #F6BF7F",
"i 	c #FCF6EF",
"j 	c #FDFCFA",
"k 	c #EBCDAA",
"l 	c #CE7A18",
"m 	c #D3780D",
"n 	c #F0C594",
"o 	c #FCF9F5",
"p 	c #EEC89B",
"q 	c #E48211",
"r 	c #E98411",
"s 	c #E5A85E",
"t 	c #F29932",
"u 	c #F8E2C9",
"v 	c #F9F4EC",
"w 	c #F4E3D0",
"x 	c #F3E3D0",
"y 	c #DDA665",
"z 	c #DCA462",
"A 	c #F3E1CC",
"B 	c #EFD8BC",
"C 	c #F4E3CF",
"D 	c #ECD0AE",
"E 	c #D27A13",
"F 	c #DF7904",
"G 	c #E69B44",
"H 	c #EA9635",
"I 	c #F1870C",
"J 	c #F0B066",
"K 	c #E2AE72",
"L 	c #D58F3E",
"M 	c #EACAA3",
"N 	c #F6EBDE",
"O 	c #D2862D",
"P 	c #D8984C",
"Q 	c #DEAB6F",
"R 	c #CB730D",
"S 	c #CE6F01",
"T 	c #D58A32",
"U 	c #EE8407",
"V 	c #DA7A0A",
"W 	c #CB6F03",
"X 	c #DEA869",
"Y 	c #F9F1E9",
"Z 	c #CA6E03",
"` 	c #CA6F04",
" .	c #CC7714",
"..	c #C96D01",
"+.	c #C86C01",
"@.	c #C27C2D",
"#.	c #E99C44",
"$.	c #F48400",
"%.	c #EA7F02",
"&.	c #DF9743",
"*.	c #F3E1CD",
"=.	c #F0D9BE",
"-.	c #D79344",
";.	c #CA6E02",
">.	c #C96C00",
",.	c #C96D00",
"'.	c #C66D03",
").	c #BD7F38",
"!.	c #E6A55C",
"~.	c #EC860F",
"{.	c #F38401",
"].	c #F6D9B6",
"^.	c #EFD6B9",
"/.	c #D79445",
"(.	c #D8974A",
"_.	c #F0DAC0",
":.	c #EED6BA",
"<.	c #D69140",
"[.	c #C36E0D",
"}.	c #BB874C",
"|.	c #F2962A",
"1.	c #F7D6AE",
"2.	c #D79242",
"3.	c #CB6E02",
"4.	c #F0DAC1",
"5.	c #EDD3B4",
"6.	c #D1862D",
"7.	c #C07825",
"8.	c #E4A65C",
"9.	c #E88819",
"0.	c #F19932",
"a.	c #EDC18F",
"b.	c #D79343",
"c.	c #CA6D00",
"d.	c #D8964A",
"e.	c #E6C093",
"f.	c #D28932",
"g.	c #BF7016",
"h.	c #BB864A",
"i.	c #E8A14F",
"j.	c #E7881D",
"k.	c #E58415",
"l.	c #CE7002",
"m.	c #C96E03",
"n.	c #CC7916",
"o.	c #C07217",
"p.	c #BD8441",
"q.	c #E6A75E",
"r.	c #E9922F",
"s.	c #DA7B10",
"t.	c #CA6D03",
"u.	c #C66C03",
"v.	c #C46F0D",
"w.	c #C27926",
"x.	c #BC884C",
"y.	c #E0A461",
"z.	c #CD8C41",
"A.	c #C07C2D",
"B.	c #BE7B2B",
"C.	c #BE803B",
"D.	c #BA8850",
"          . + @ @ + .           ",
"      # $ % & * * & % $ #       ",
"    = - ; > , ' ) ! ~ * { ]     ",
"  # - ^ / ( _ : < [ } | 1 2 3   ",
"  4 5 6 7 8 9 0 a b c d e f g   ",
". % > h i j k l m n o j p q r s ",
"+ & t u v w x y z A B C D E F G ",
"H * I J K L M 9 N M O P Q R S T ",
"H ' ) U V W X Y Y X Z `  ...+.@.",
"#.& $.) %.&.B *.w =.-.;.>.,.'.).",
"!.~.) {.| ].^./.(._.:.<.;.>.[.}.",
"  g * |.1.^.2.3.W (.4.5.6.+.7.  ",
"  8.9.0.a.b.;.c.c.` d.e.f.g.h.  ",
"    i.j.k.l.>.c.,.,.m.n.o.p.    ",
"      q.r.s.t.+.+.u.v.w.x.      ",
"          y.z.A.B.C.D.          "};
