/* XPM */
static char * bitcoin48_xpm[] = {
"48 48 314 2",
"  	c None",
". 	c #F4F3F3",
"+ 	c #F3F0F0",
"@ 	c #F0F0EF",
"# 	c #F1E6E1",
"$ 	c #EFDED4",
"% 	c #ECCCB8",
"& 	c #E8B194",
"* 	c #E49D70",
"= 	c #DE894F",
"- 	c #D87E3C",
"; 	c #F2EAE6",
"> 	c #EED6C9",
", 	c #E9B79A",
"' 	c #E49160",
") 	c #D86C1A",
"! 	c #D65D18",
"~ 	c #D65A18",
"{ 	c #EEDBD1",
"] 	c #E7A680",
"^ 	c #DB6E20",
"/ 	c #F3E7E0",
"( 	c #ECC2AF",
"_ 	c #DB752F",
": 	c #EFD7CB",
"< 	c #E6A078",
"[ 	c #D66118",
"} 	c #E38B57",
"| 	c #E1884E",
"1 	c #D76918",
"2 	c #D76B18",
"3 	c #D65B18",
"4 	c #DB7526",
"5 	c #D66518",
"6 	c #E28B57",
"7 	c #DD7931",
"8 	c #F7D4B8",
"9 	c #F9DBC5",
"0 	c #E18445",
"a 	c #EDA879",
"b 	c #FBEEDC",
"c 	c #F4BF99",
"d 	c #E7A078",
"e 	c #FFFFFF",
"f 	c #FBEADA",
"g 	c #E0803C",
"h 	c #EB9E6C",
"i 	c #FEFEF3",
"j 	c #F4C3A0",
"k 	c #D66618",
"l 	c #D65E18",
"m 	c #DE7B34",
"n 	c #F8D9C1",
"o 	c #E4864B",
"p 	c #E99D68",
"q 	c #F6CEB2",
"r 	c #E89763",
"s 	c #D66218",
"t 	c #EFDBD3",
"u 	c #DC772F",
"v 	c #D76818",
"w 	c #F0B189",
"x 	c #FCF3E5",
"y 	c #F8D2BC",
"z 	c #CF5D17",
"A 	c #E18644",
"B 	c #FCF3E1",
"C 	c #FFFFFD",
"D 	c #F3BA96",
"E 	c #D65918",
"F 	c #DA762E",
"G 	c #F3EBE7",
"H 	c #F2B891",
"I 	c #DDAB8E",
"J 	c #A03512",
"K 	c #CB4F17",
"L 	c #DB7220",
"M 	c #F8DDC4",
"N 	c #F1B18C",
"O 	c #D96E1F",
"P 	c #E69158",
"Q 	c #FEFEF9",
"R 	c #E7BCA4",
"S 	c #C94E16",
"T 	c #DD762B",
"U 	c #F9E3CD",
"V 	c #FCF3E6",
"W 	c #D17331",
"X 	c #D45718",
"Y 	c #F7D2B8",
"Z 	c #EDC6B2",
"` 	c #A23512",
" .	c #E18340",
"..	c #F3CCB5",
"+.	c #C66016",
"@.	c #E8B79A",
"#.	c #F1E7E1",
"$.	c #D86C18",
"%.	c #F6CAAD",
"&.	c #FEFAF2",
"*.	c #CF6B23",
"=.	c #FAE3CE",
"-.	c #C68252",
";.	c #D65718",
">.	c #E29160",
",.	c #D86B1A",
"'.	c #D76A18",
").	c #F6C6AA",
"!.	c #EDC6B3",
"~.	c #A23712",
"{.	c #F0C7B4",
"].	c #C07948",
"^.	c #A33712",
"/.	c #D76B1A",
"(.	c #EDCAB9",
"_.	c #EB9B6B",
":.	c #F0CEBB",
"<.	c #EEC7B4",
"[.	c #B86C37",
"}.	c #9F3512",
"|.	c #A43512",
"1.	c #ECCAB8",
"2.	c #E8B191",
"3.	c #E18342",
"4.	c #FDF4E9",
"5.	c #FEFDF4",
"6.	c #F6D5C2",
"7.	c #EBC4AF",
"8.	c #FCF2E6",
"9.	c #D29975",
"0.	c #F2D1BE",
"a.	c #FFFFFE",
"b.	c #B25E26",
"c.	c #A33512",
"d.	c #E3996B",
"e.	c #E99765",
"f.	c #FDFCF0",
"g.	c #FADFCE",
"h.	c #C7835B",
"i.	c #FDF6EA",
"j.	c #F7DAC8",
"k.	c #EECCB5",
"l.	c #C27D50",
"m.	c #F0CFB9",
"n.	c #AC561A",
"o.	c #9F3412",
"p.	c #E49A6C",
"q.	c #DC8646",
"r.	c #E99D6F",
"s.	c #F8DAC8",
"t.	c #A23B12",
"u.	c #CB8A65",
"v.	c #FDF5E9",
"w.	c #C78660",
"x.	c #F4D1BD",
"y.	c #AB5013",
"z.	c #D98144",
"A.	c #DA7932",
"B.	c #E29665",
"C.	c #E6B99F",
"D.	c #A33D12",
"E.	c #CC8C68",
"F.	c #FDF8EE",
"G.	c #FDF9F0",
"H.	c #F6D5C1",
"I.	c #F6D6C2",
"J.	c #A74A13",
"K.	c #B55D22",
"L.	c #ECECEC",
"M.	c #D45918",
"N.	c #D19572",
"O.	c #D29874",
"P.	c #BE7542",
"Q.	c #8C4310",
"R.	c #D1D1D1",
"S.	c #DF8446",
"T.	c #A34012",
"U.	c #D69D7C",
"V.	c #D39C79",
"W.	c #8B481B",
"X.	c #B9B9B9",
"Y.	c #FDFAF0",
"Z.	c #CD8F69",
"`.	c #915A3A",
" +	c #B6B6B5",
".+	c #E8B091",
"++	c #A73A13",
"@+	c #A23912",
"#+	c #C57F55",
"$+	c #C6835A",
"%+	c #9C3111",
"&+	c #98705C",
"*+	c #C78052",
"=+	c #FCEEE1",
"-+	c #FADFCF",
";+	c #FBE7DA",
">+	c #C68259",
",+	c #973011",
"'+	c #A48C80",
")+	c #E58C51",
"!+	c #FCF1E1",
"~+	c #F5D1C0",
"{+	c #BB6D3C",
"]+	c #FAE0D2",
"^+	c #A03412",
"/+	c #923910",
"(+	c #AB9F97",
"_+	c #E49060",
":+	c #FAEAD6",
"<+	c #F7D5C4",
"[+	c #BC6F42",
"}+	c #FBEADD",
"|+	c #BE7343",
"1+	c #985731",
"2+	c #AFA8A5",
"3+	c #E9B49A",
"4+	c #DF7E37",
"5+	c #F5D2C0",
"6+	c #A23812",
"7+	c #BE7247",
"8+	c #FAE4D6",
"9+	c #BD7346",
"0+	c #9B3411",
"a+	c #9D7764",
"b+	c #DD792F",
"c+	c #F2D2BF",
"d+	c #BB6E3E",
"e+	c #FBE4D7",
"f+	c #FBE9DD",
"g+	c #BB6E3C",
"h+	c #A03712",
"i+	c #933B10",
"j+	c #A9968D",
"k+	c #F1E9E5",
"l+	c #E3A37F",
"m+	c #DB7120",
"n+	c #F8D7C8",
"o+	c #FAE0D1",
"p+	c #B5622B",
"q+	c #9C3311",
"r+	c #98684C",
"s+	c #B1ABA8",
"t+	c #ECD9D0",
"u+	c #DA752E",
"v+	c #BD7246",
"w+	c #FBE6D8",
"x+	c #F5D5C0",
"y+	c #924010",
"z+	c #A99B94",
"A+	c #F1ECEB",
"B+	c #EBC1AB",
"C+	c #F8DBC4",
"D+	c #F7D6C4",
"E+	c #BA6D3C",
"F+	c #F3CFB6",
"G+	c #A54712",
"H+	c #963411",
"I+	c #A28374",
"J+	c #B1B0AD",
"K+	c #F1E4E0",
"L+	c #E69F77",
"M+	c #FBEAD7",
"N+	c #FCEDE4",
"O+	c #FAE4D5",
"P+	c #B5652B",
"Q+	c #9E3412",
"R+	c #9D6548",
"S+	c #AEA6A2",
"T+	c #E38A57",
"U+	c #E28547",
"V+	c #E9B496",
"W+	c #A03812",
"X+	c #BC7243",
"Y+	c #BC7142",
"Z+	c #9E3212",
"`+	c #97532B",
" @	c #A9968F",
".@	c #E0844A",
"+@	c #A23C12",
"@@	c #954C1F",
"#@	c #A99891",
"$@	c #973411",
"%@	c #F0E6E0",
"&@	c #DA732C",
"*@	c #934010",
"=@	c #A38374",
"-@	c #EFECEB",
";@	c #ECD9CF",
">@	c #E6A47E",
",@	c #D86D1D",
"'@	c #943B10",
")@	c #9A694C",
"!@	c #A99A94",
"~@	c #B0ADAC",
"{@	c #E8B49A",
"]@	c #973211",
"^@	c #933A10",
"/@	c #9A5833",
"(@	c #A17965",
"_@	c #ADA9A8",
":@	c #EEE6E1",
"<@	c #EFDED3",
"[@	c #DCBFB0",
"}@	c #AA836D",
"|@	c #915A39",
"1@	c #894619",
"2@	c #863D0F",
"3@	c #98705B",
"4@	c #ABA098",
"5@	c #ADA6A4",
"6@	c #D9D6D6",
"7@	c #B5B5B4",
"8@	c #B1B1B0",
"9@	c #B1B1B1",
"                                                                                                ",
"                                                                                                ",
"                                        . . + @ @ + . .                                         ",
"                                  # $ % & * = - - = * & % $ #                                   ",
"                            ; > , ' ) ! ~ ~ ~ ~ ~ ~ ~ ~ ! ) ' , > ;                             ",
"                          { ] ^ ! ~ ~ ~ ~ ~ ~ ~ ~ ~ ~ ~ ~ ~ ~ ! ^ ] {                           ",
"                      / ( _ ~ ~ ~ ~ ~ ~ ~ ~ ~ ~ ~ ~ ~ ~ ~ ~ ~ ~ ~ ~ _ ( /                       ",
"                    : < [ ~ ~ ~ ~ ~ ~ ~ ~ ~ ~ ~ ~ ~ ~ ~ ~ ~ ~ ~ ~ ~ ~ [ < :                     ",
"                  : } ! ~ ~ ~ ~ ~ ~ ~ ~ ~ ~ ~ ~ ~ ~ ~ ~ ~ ~ ~ ~ ~ ~ ~ ~ ! } :                   ",
"                : | ~ ~ ~ ~ ~ ~ ~ ~ 1 2 3 ~ ~ ~ ~ ~ ~ ~ [ 4 5 ~ ~ ~ ~ ~ ~ ~ | :                 ",
"              : 6 ~ ~ ~ ~ ~ ~ ~ ~ 7 8 9 0 ~ ~ ~ ~ ~ ~ [ a b c 2 ~ ~ ~ ~ ~ ~ ~ } :               ",
"            / d ! ~ ~ ~ ~ ~ ~ ~ 7 9 e e f g 3 ~ ~ ~ ! h i e e j k ~ ~ ~ ~ ~ ~ 3 < /             ",
"            ( [ ~ ~ ~ ~ ~ ~ l m n e e e e f o ~ ~ l p i e e e e q r s ~ ~ ~ ~ ~ [ (             ",
"          t u ~ ~ ~ ~ ~ ~ v w x e e e e e e y z ~ A B e e e e e e C D k ~ ~ E ~ E F t           ",
"        G ] ~ ~ ~ ~ ~ ~ s H e e e e e e e e I J K L M e e e e e e e e N ! E E ~ E ~ ] G         ",
"        > O ~ ~ ~ ~ ~ ~ P Q e e e e e e e R J J J S T U e e e e e e e V W X E ~ E ~ O >         ",
"        , l ~ ~ ~ ~ ~ ) Y e e e e e e e Z J J J ` J S  .b e e e e e e e ..+.~ ~ E E ! @.        ",
"      #.' ~ ~ ~ ~ ~ $.%.e e e e e e e &.J ` J J J ` J *.=.e e e e e e e e -.~ ;.E E E >.#.      ",
"      $ ,.~ ~ ~ ~ '.).e e e e e e e e e !.J ~.J J ~.J {.e e e e e e e e e ].^.~ ~ E E /.$       ",
"      (.3 ~ ~ ~ ~ _.e e e e e e e e e e e :.J J J J <.e e e e e e e e e e [.}.|.~ ~ E 3 1.      ",
"    . 2.~ ~ ~ ~ ~ 3.x e e e e e 4.5.e e e e 6.J J 7.e e e e 8.9.0.e e e a.b.}.J c.~ ~ E 2..     ",
"    . d.~ ~ ~ ~ ~ 3 e.f.e e e g.J h.i.e e e e j.k.e e e e 4.l.J J m.e e 5.n.o.J o.J ~ ~ p..     ",
"    + q.~ ~ ~ ~ ~ ~ l r.f.e s.J ~.t.u.v.e e e e e e e e 4.w.J J J J x.e 4.y.o.J o.o.c.~ z.+     ",
"    @ A.~ ~ ~ ~ ~ ~ ~ ! B.C.J J J J D.E.F.e e e e e e G.u.J J J J J J H.I.J.o.J o.o.o.c.K.L.    ",
"    @ A.~ ~ ~ ~ ~ ~ ~ ~ M.J J J J J J D.N.a.e e e e e O.J J J J J J J J P.J o.J o.o.o.o.Q.R.    ",
"    + S.~ ~ ~ ~ ~ ~ ~ ~ ~ ~ J J J J J T.U.e e e e e e V.J J J J J J J J }.o.o.J o.o.o.o.W.X.    ",
"    . d.~ ~ ~ ~ ~ ~ ~ ~ ~ E ~ J J J t.E.&.e e e e e e Y.Z.J J J J J J o.o.o.o.J o.o.o.o.`. +    ",
"    . .+~ ~ ~ ~ ~ ~ ~ ~ ~ ~ E ~ ++@+#+4.e e e e e e e e v.$+J J J J J J o.o.o.J o.o.o.%+&+ +    ",
"      1.3 ~ ~ ~ ~ ~ ~ ~ ~ ~ ~ ;.~ *+=+e e e e -+;+e e e e V >+J J J J J o.o.o.J o.o.o.,+'+      ",
"      $ $.~ ~ ~ ~ ~ ~ ~ ~ ~ ~ 3 )+!+e e e e ~+J {+]+e e e e 8.#+J J J J o.o.o.J o.o.^+/+(+      ",
"      # _+~ ~ ~ ~ ~ ~ ~ ~ ~ ~ g :+e e e e <+J ~.~.[+;+e e e e }+|+~.J J o.o.o.J o.o.o.1+2+      ",
"        3+l ~ ~ ~ ~ ~ ~ ~ 3 4+=.e e e e 5+J J J J 6+7+8+e e e e ;+9+6+J o.o.o.J o.o.0+a+        ",
"        > O ~ ~ ~ ~ ~ ~ ~ b+=.e e e e c+J J J J J J ~.d+e+e e e e f+g+h+o.o.o.J o.}.i+j+        ",
"        k+l+~ ~ ~ ~ ~ ~ m+n e e e e n+J J J J J J J J h+9+}+e e e e o+p+J o.o.J o.q+r+s+        ",
"          t+u+~ ~ ~ ~ 5 q e e e e 6.J ~.J J J J J J J J @+v+w+e e e e x+J.^+o.J o.y+z+          ",
"          A+B+[ ~ ~ ~ k C+e e e D+J J J J J J J J J J J J h+E+;+e e e F+G+^+o.^+H+I+J+          ",
"            K+L+3 ~ ~ ~  .M+e -+J J J J J J J J J J J J J J h+9+N+e O+P+J o.o.Q+R+S+            ",
"              > T+E ~ ~ 3 U+V+J J J J J J J J J J J J J J J }.W+X+R Y+6+o.o.Z+`+ @              ",
"                : .@~ ~ ~ ~ ~ J J J J J J J J J J J J J J o.o.o.}.+@h+o.o.Z+@@#@                ",
"                  : } 3 ~ ~ ;.~ J J J J J J J J J J J J J }.}.}.}.o.}.}.Q+`+#@                  ",
"                    > L+[ ~ ~ ~ ~ ^.J J J J J J J J J J o.o.o.o.o.}.o.$@R+ @                    ",
"                      %@B+&@~ ~ ~ ~ J J J J J J J J J J o.o.o.o.}.q+*@=@S+                      ",
"                        -@;@>@,@! ~ ~ J J J J J J J J o.o.o.o.0+'@)@!@~@                        ",
"                            k+> {@' ~ ~ Q+}.J J J J }.%+]@^@/@(@ @_@                            ",
"                                  :@<@[@}@|@1@2@2@1@|@3@'+4@5@                                  ",
"                                        6@7@8@8@8@8@9@9@                                        ",
"                                                                                                ",
"                                                                                                "};
